<svg xmlns="http://www.w3.org/2000/svg" width="512" height="512" viewBox="0 0 512 512">
  <defs>
    <style>
      .cls-1 {
        fill: #ddede8;
      }

      .cls-2 {
        fill: #282828;
        fill-rule: evenodd;
      }
    </style>
  </defs>
  <circle class="cls-1" cx="256" cy="256" r="256"/>
  <path class="cls-2" d="M305.117,160.673c4.326,1.5,6.11,4.633,5.809,9.193-0.116,1.762-.019,3.539-0.019,5.538,3.053,0,5.986-.009,8.919,0a28.416,28.416,0,0,1,22.351,10.231,29.066,29.066,0,0,1,7.035,17.554c0.056,0.856.056,1.718,0.056,2.577q0,38.022.019,76.044c0,2.507-.468,4.783-2.358,6.507a6.8,6.8,0,0,1-7.4,1.493,7.088,7.088,0,0,1-4.679-6.229,20.923,20.923,0,0,1-.051-2.391q0-37.746-.008-75.492c0-7.576-4.211-13.645-11.091-15.014-4.079-.812-8.369-0.531-12.79-0.753,0,2.528.013,4.716,0,6.9-0.034,4.695-2.985,7.982-7.178,8.015-4.264.034-7.263-3.285-7.293-8.084-0.013-2.137,0-4.274,0-6.521H263.5c0,2.26.015,4.453,0,6.647-0.04,4.673-3.034,7.958-7.234,7.958s-7.2-3.284-7.236-7.957c-0.018-2.194,0-4.387,0-6.668H216.433c0,2.482.087,4.975-.017,7.459a7.219,7.219,0,1,1-14.434-.3c-0.035-2.327-.007-4.655-0.007-7.253-4.975.223-9.988-.893-14.667,1.221-5.936,2.682-8.817,7.584-8.85,14.157-0.047,9.451-.012,18.9-0.012,28.355q0,42.441,0,84.883c0,7.644,3.9,13.187,10.75,15.145a17.168,17.168,0,0,0,4.643.572q62.792,0.043,125.582.017c8.83,0,14.722-5.658,15.366-14.656,0.325-4.538,3.475-7.614,7.589-7.41s6.972,3.567,6.87,8.117c-0.343,15.383-12.691,28.1-27.815,28.652-0.422.015-.844,0.031-1.267,0.031q-63.514,0-127.03-.015a28.822,28.822,0,0,1-27.585-19.954c-0.687-2-1.063-4.114-1.583-6.175V201.55a5.951,5.951,0,0,0,.343-1,29.108,29.108,0,0,1,13.514-20.759c5.379-3.471,11.33-4.6,17.608-4.394,2.142,0.069,4.289.011,6.536,0.011,0-2.015.1-3.791-.019-5.553-0.3-4.557,1.494-7.677,5.81-9.178h2.9c4.314,1.5,6.109,4.618,5.81,9.175-0.118,1.806-.019,3.626-0.019,5.431H249.02c0-1.894.1-3.67-.019-5.431-0.3-4.557,1.5-7.675,5.809-9.175h2.9c4.313,1.5,6.108,4.618,5.81,9.175-0.119,1.806-.02,3.626-0.02,5.431h32.935c0-1.893.1-3.669-.019-5.431-0.3-4.557,1.5-7.675,5.809-9.175h2.9ZM287.744,309.4c-3.015,0-6.041.176-9.041-.035-7.513-.526-13.1-5.826-13.582-13.463a155.651,155.651,0,0,1,0-19.677,14.1,14.1,0,0,1,14.122-13.5q8.676-.252,17.364,0a14.1,14.1,0,0,1,14.122,13.5,153.437,153.437,0,0,1,0,19.677c-0.517,7.966-6.592,13.354-14.483,13.532-2.832.064-5.668,0.01-8.5,0.01V309.4Zm8.568-14.771v-17.08h-16.8v17.08h16.8ZM209.2,245.36a7.354,7.354,0,1,1,7.237-7.386A7.329,7.329,0,0,1,209.2,245.36Zm31.535-14.7a7.355,7.355,0,1,1-7.262,7.361A7.331,7.331,0,0,1,240.732,230.656Zm38.676,7.275a7.226,7.226,0,1,1-7.347-7.275A7.329,7.329,0,0,1,279.408,237.931Zm31.486,0.074a7.226,7.226,0,1,1-7.274-7.349A7.326,7.326,0,0,1,310.894,238.005Zm-94.46,32a7.226,7.226,0,1,1-7.31-7.311A7.328,7.328,0,0,1,216.434,270.006Zm31.487,0.078a7.226,7.226,0,1,1-7.234-7.389A7.327,7.327,0,0,1,247.921,270.084ZM216.434,302.07a7.226,7.226,0,1,1-7.285-7.337A7.326,7.326,0,0,1,216.434,302.07Zm24.335-7.337a7.355,7.355,0,1,1-7.3,7.323A7.335,7.335,0,0,1,240.769,294.733Z"/>
</svg>
