<svg xmlns="http://www.w3.org/2000/svg" width="512" height="512" viewBox="0 0 512 512">
  <defs>
    <style>
      .cls-1 {
        fill: #ddede8;
      }

      .cls-2 {
        fill: #282828;
        fill-rule: evenodd;
      }
    </style>
  </defs>
  <circle id="Ellipse_6_copy" data-name="Ellipse 6 copy" class="cls-1" cx="256" cy="256" r="256"/>
  <path class="cls-2" d="M223.947,350.737h-8.842a11.073,11.073,0,0,0-1.409-.314,57.862,57.862,0,0,1-50.5-44.646c-0.643-2.913-1.011-5.886-1.507-8.831v-7.737a11.233,11.233,0,0,0,.3-1.4,55.333,55.333,0,0,1,14.258-33.022c13.549-14.936,30.5-21.306,50.573-19.066,3.32,0.37,6.587,1.2,10.01,1.849v-2.222c0-14.734.049-29.468-.027-44.2a18.409,18.409,0,0,1,4.985-12.877,38.049,38.049,0,0,1,13.622-9.189c10.1-4.355,20.755-6.243,31.664-6.793,14.661-.739,29.092.583,42.841,6.085,9.454,3.784,17.912,8.839,20.4,19.885V296.578c-1.739,8.543-7.649,13.54-14.859,17.394a46.3,46.3,0,0,1-5.5,2.53c-18.843,7.076-38.183,7.7-57.8,4.261a2.176,2.176,0,0,0-2.755,1.2c-8.359,14-20.433,23.1-36.254,27.118C230.133,349.84,227.016,350.194,223.947,350.737Zm-4.373-104.509a46.727,46.727,0,1,0,46.666,46.861A46.86,46.86,0,0,0,219.574,246.228Zm76.119-38.91c2.626-.213,7.539-0.424,12.4-1.049,8.253-1.059,16.309-2.983,23.538-7.314a27.139,27.139,0,0,0,5.929-4.862c2.3-2.5,2.251-5.011.118-7.638a20.671,20.671,0,0,0-3.88-3.621,41.683,41.683,0,0,0-12.961-5.979,99.843,99.843,0,0,0-37.541-3.218,74.712,74.712,0,0,0-23,5.38c-3.963,1.706-7.791,3.668-10.626,7.062-2.409,2.884-2.414,5.427.022,8.262a14.652,14.652,0,0,0,3.391,3.07,60.372,60.372,0,0,0,8.421,4.461C271.725,205.98,282.493,207.139,295.693,207.318Zm-47.811.158c0,2.77.075,5.327-.023,7.876a6.426,6.426,0,0,0,2.168,5.453,44.827,44.827,0,0,0,7.587,5.406c8.411,4.373,17.585,6.073,26.933,6.776,13.644,1.025,27.111.137,40.1-4.6,4.4-1.6,8.648-3.595,11.927-7.06a8.354,8.354,0,0,0,2.446-4.182,81.73,81.73,0,0,0,.114-9.618c-14.211,8.355-29.68,10.764-45.613,10.764S262.137,215.865,247.882,207.476Zm91.352,26.11c-14.305,8.372-29.745,10.8-45.69,10.8-15.978,0-31.447-2.457-45.662-10.778,0,2.708.05,5.163-.024,7.613a2.136,2.136,0,0,0,1.219,2.181A57.948,57.948,0,0,1,261.8,253.63a5.646,5.646,0,0,0,2.112,1.335,78.147,78.147,0,0,0,21.222,4.188c12.641,0.871,25.14.089,37.283-3.865,5.16-1.68,10.092-3.853,14.079-7.7a7.478,7.478,0,0,0,2.722-5.252C339.271,239.519,339.234,236.7,339.234,233.586Zm-0.04,26.283c-21.407,11.626-44,12.213-66.719,8.942,1.3,4.731,2.607,9.621,4.028,14.477a2.051,2.051,0,0,0,1.489,1.116c5.432,0.448,10.871,1.063,16.312,1.108,10.988,0.091,21.762-1.419,32.035-5.561,3.768-1.519,7.429-3.337,10.213-6.374a9.266,9.266,0,0,0,2.526-4.533A69.641,69.641,0,0,0,339.194,259.869Zm0.039,26.047C319.677,296.8,298.8,297.863,277.5,295.7c-0.834,4.792-1.659,9.532-2.5,14.345,0.187,0.044.476,0.13,0.771,0.18a105.923,105.923,0,0,0,28.067,1.013c7.9-.748,15.717-2.121,22.982-5.452a58.856,58.856,0,0,0,9.228-5.6,7.019,7.019,0,0,0,3.162-5.591C339.284,291.773,339.233,288.95,339.233,285.916ZM225.072,319.768v7.211H214.018v-7.292H201.48V308.613h2.172c7.487,0,14.974.02,22.462-.01,3.309-.013,5.5-1.688,5.923-4.386a5.223,5.223,0,0,0-5.245-6.13c-3.987-.078-7.978.02-11.966-0.041A15.826,15.826,0,0,1,199.9,286.975a15.437,15.437,0,0,1,5.724-17.481c2.353-1.623,5.234-2.479,8.321-3.886v-6.659h11.019v7.311h9.947v11.113h-1.9q-8.562,0-17.123,0c-3.551.006-5.666,1.835-5.643,4.85,0.023,2.988,2.156,4.738,5.733,4.793,4.6,0.07,9.242-.207,13.774.381,8.055,1.043,13.661,8.379,13.379,16.779a16.217,16.217,0,0,1-14.323,15.3C227.647,319.605,226.484,319.662,225.072,319.768Z"/>
</svg>
